<svg width="300" height="160" viewBox="0 0 300 160" xmlns="http://www.w3.org/2000/svg" role="img" aria-labelledby="title desc"><title id="title">Near-sensor neuromorphic computing</title><desc id="desc">A sensor array feeds a spiking neural network and sparse wireless output.</desc>
  <defs><filter id="g"><feGaussianBlur stdDeviation="2" result="b"/><feMerge><feMergeNode in="b"/><feMergeNode in="SourceGraphic"/></feMerge></filter><marker id="a" viewBox="0 0 6 6" refX="5" refY="3" markerWidth="5" markerHeight="5" orient="auto"><path d="M0 0l6 3-6 3z" fill="#777"/></marker></defs>
  <style>.bg{fill:#111}.ink{fill:#f5f5f5}.muted{fill:#777}.panel{fill:#181818;stroke:#303030}.wire{stroke:#666}:root[data-theme='light'] .bg{fill:#f5f5f5}:root[data-theme='light'] .ink{fill:#171717}:root[data-theme='light'] .panel{fill:#fff;stroke:#d8d8d8}:root[data-theme='light'] .wire{stroke:#999}.t{font-family:Inter,Arial,sans-serif}</style>
  <rect width="300" height="160" class="bg"/><text x="18" y="22" class="ink t" font-size="10" font-weight="700" letter-spacing="1.2">COMPUTE WHERE SIGNALS BEGIN</text>
  <rect x="18" y="42" width="55" height="78" rx="7" class="panel"/><g fill="#ff3333" opacity=".85"><circle cx="32" cy="58" r="2.2"/><circle cx="45" cy="58" r="2.2"/><circle cx="58" cy="58" r="2.2"/><circle cx="32" cy="72" r="2.2"/><circle cx="45" cy="72" r="2.2"/><circle cx="58" cy="72" r="2.2"/><circle cx="32" cy="86" r="2.2"/><circle cx="45" cy="86" r="2.2"/><circle cx="58" cy="86" r="2.2"/></g><path d="M28 103c6-9 9 9 15 0s9 9 16 0" fill="none" stroke="#ff3333" stroke-width="1.5"/><text x="45" y="131" class="muted t" font-size="7" text-anchor="middle">SENSE</text>
  <path d="M76 81H101" class="wire" marker-end="url(#a)"/><rect x="106" y="42" width="82" height="78" rx="7" class="panel"/><g class="wire" fill="none" opacity=".8"><path d="M119 60l22 18 31-20M119 60l22 40 31-42M119 101l22-23 31 22"/></g><g fill="#ff3333" filter="url(#g)"><circle cx="119" cy="60" r="3"/><circle cx="119" cy="101" r="3"/><circle cx="141" cy="78" r="4"/><circle cx="141" cy="100" r="3"/><circle cx="172" cy="58" r="3"/><circle cx="172" cy="100" r="3"/></g><text x="147" y="131" class="muted t" font-size="7" text-anchor="middle">SPIKE</text>
  <path d="M191 81H214" class="wire" marker-end="url(#a)"/><rect x="219" y="42" width="63" height="78" rx="7" class="panel"/><path d="M231 102V76M243 102V91M255 102V61M267 102V84" stroke="#ff3333" stroke-width="2"/><g fill="#ff3333"><circle cx="231" cy="76" r="2.5"/><circle cx="243" cy="91" r="2.5"/><circle cx="255" cy="61" r="2.5"/><circle cx="267" cy="84" r="2.5"/></g><text x="250" y="131" class="muted t" font-size="7" text-anchor="middle">SEND</text>
  <text x="282" y="149" class="muted t" font-size="7" text-anchor="end">NEAR-SENSOR SNN · SEND-ON-DELTA</text>
</svg>
