<svg width="300" height="160" viewBox="0 0 300 160" xmlns="http://www.w3.org/2000/svg">
  <style>
    .bg { fill: #111111; }
    .text-color { fill: #ffffff; }
    .box-bg { fill: #222222; }
    .module-bg { fill: #333333; }
    :root[data-theme='light'] .bg { fill: #f5f5f5; }
    :root[data-theme='light'] .text-color { fill: #333333; }
    :root[data-theme='light'] .box-bg { fill: #ffffff; }
    :root[data-theme='light'] .module-bg { fill: #ffffff; }
    
    .stroke-color { stroke: #ffffff; }
    :root[data-theme='light'] .stroke-color { stroke: #333333; }
    
    .module-stroke { stroke: #ffffff; }
    :root[data-theme='light'] .module-stroke { stroke: #666666; }
  </style>
  
  <!-- 背景 -->
  <rect width="300" height="160" class="bg"/>
  
  <!-- PLL框图 -->
  <rect x="50" y="60" width="200" height="70" class="box-bg stroke-color" stroke-width="1.5" rx="3"/>
  
  <!-- 参考输入 -->
  <line x1="20" y1="80" x2="50" y2="80" class="stroke-color" stroke-width="1.5"/>
  <text x="20" y="75" font-family="Arial" font-size="10" class="text-color">Ref</text>
  
  <!-- 鉴相器 -->
  <rect x="60" y="70" width="30" height="20" class="module-bg module-stroke" stroke-width="1.5"/>
  <text x="66" y="84" font-family="Arial" font-size="8" class="text-color">PD</text>
  
  <!-- 环路滤波器 -->
  <rect x="100" y="70" width="30" height="20" class="module-bg module-stroke" stroke-width="1.5"/>
  <text x="105" y="84" font-family="Arial" font-size="8" class="text-color">LF</text>
  
  <!-- DCO -->
  <rect x="140" y="70" width="40" height="20" class="module-bg module-stroke" stroke-width="1.5"/>
  <text x="145" y="84" font-family="Arial" font-size="8" fill="#ff5555">DCO</text>
  
  <!-- 输出 -->
  <line x1="180" y1="80" x2="230" y2="80" class="stroke-color" stroke-width="1.5"/>
  <circle cx="230" cy="80" r="3" class="stroke-color" fill="currentColor"/>
  <text x="215" y="70" font-family="Arial" font-size="10" class="text-color">Out</text>
  
  <!-- 反馈路径 -->
  <path d="M190,80 L190,105 L90,105 L90,90" fill="none" class="stroke-color" stroke-width="1.5"/>
  
  <!-- Fractional-N模块 -->
  <rect x="100" y="95" width="80" height="20" rx="3" class="module-bg" stroke="#ff5555" stroke-width="1.5"/>
  <text x="110" y="108" font-family="Arial" font-size="8" fill="#ff5555">Fractional-N</text>
  
  <!-- 低功耗标记 -->
  <path d="M210,100 L225,115 L240,100" fill="none" stroke="#ff5555" stroke-width="1.5"/>
  <text x="215" y="125" font-family="Arial" font-size="8" class="text-color">673μW</text>
</svg> 