<svg width="500" height="360" viewBox="0 0 500 360" xmlns="http://www.w3.org/2000/svg" role="img" aria-labelledby="title desc"><title id="title">Research architecture</title><desc id="desc">Brains produce signals processed by silicon into intelligent biomedical and wireless systems.</desc>
  <defs><radialGradient id="halo"><stop stop-color="#ff3333" stop-opacity=".18"/><stop offset="1" stop-color="#ff3333" stop-opacity="0"/></radialGradient><filter id="g"><feGaussianBlur stdDeviation="3" result="b"/><feMerge><feMergeNode in="b"/><feMergeNode in="SourceGraphic"/></feMerge></filter><marker id="a" viewBox="0 0 6 6" refX="5" refY="3" markerWidth="6" markerHeight="6" orient="auto"><path d="M0 0l6 3-6 3z" fill="#ff3333"/></marker></defs>
  <style>.bg{fill:#111}.ink{fill:#f5f5f5}.muted{fill:#858585}.panel{fill:#171717;stroke:#333}.wire{stroke:#555}:root[data-theme='light'] .bg{fill:transparent}:root[data-theme='light'] .ink{fill:#171717}:root[data-theme='light'] .muted{fill:#666}:root[data-theme='light'] .panel{fill:#fff;stroke:#d8d8d8}:root[data-theme='light'] .wire{stroke:#aaa}.t{font-family:Inter,Arial,sans-serif}</style>
  <rect width="500" height="360" rx="14" class="bg"/><text x="28" y="38" class="ink t" font-size="13" font-weight="700" letter-spacing="2">BRAINS · SIGNALS · SILICON</text><text x="28" y="58" class="muted t" font-size="9">A RESEARCH ARCHITECTURE FOR INTELLIGENT INTERFACES</text>
  <circle cx="250" cy="184" r="122" fill="url(#halo)"/>
  <path d="M148 180H211M289 180H352" stroke="#ff3333" stroke-width="1.6" marker-end="url(#a)"/><text x="180" y="168" class="muted t" font-size="8" text-anchor="middle">encode</text><text x="320" y="168" class="muted t" font-size="8" text-anchor="middle">compute</text>
  <g><circle cx="97" cy="180" r="52" class="panel"/><path d="M74 190c-13-17 0-41 17-39 8-14 35-6 32 13 14 9 4 31-10 30-7 13-30 11-35-4" fill="none" stroke="#ff3333" stroke-width="2"/><path d="M86 155c-3 16 9 19 6 35M104 150c7 14-3 23 5 42M72 176c14-6 21 5 36 1M92 163c9 5 17 2 27 8" fill="none" class="wire"/><circle cx="76" cy="176" r="2" fill="#ff3333"/><circle cx="92" cy="163" r="2" fill="#ff3333"/><circle cx="108" cy="177" r="2" fill="#ff3333"/><text x="97" y="248" class="ink t" font-size="10" font-weight="700" text-anchor="middle">BRAINS</text><text x="97" y="264" class="muted t" font-size="8" text-anchor="middle">BCI · BIOMEDICAL</text></g>
  <g><circle cx="250" cy="180" r="52" class="panel"/><path d="M218 187c8 0 8-24 16-24s8 42 16 42 8-63 16-63 8 45 16 45" fill="none" stroke="#ff3333" stroke-width="2.3" filter="url(#g)"/><g fill="#ff3333"><circle cx="234" cy="163" r="3"/><circle cx="250" cy="205" r="3"/><circle cx="266" cy="142" r="3"/><circle cx="282" cy="187" r="3"/></g><text x="250" y="248" class="ink t" font-size="10" font-weight="700" text-anchor="middle">SIGNALS</text><text x="250" y="264" class="muted t" font-size="8" text-anchor="middle">SENSE · COMPRESS</text></g>
  <g><circle cx="403" cy="180" r="52" class="panel"/><rect x="378" y="155" width="50" height="50" rx="5" fill="none" stroke="#ff3333" stroke-width="1.7"/><g class="wire"><path d="M388 155v-10M403 155v-10M418 155v-10M388 205v10M403 205v10M418 205v10M378 165h-10M378 180h-10M378 195h-10M428 165h10M428 180h10M428 195h10"/></g><path d="M389 181h8l5-12 7 22 5-10h5" fill="none" stroke="#ff3333" stroke-width="1.6"/><text x="403" y="248" class="ink t" font-size="10" font-weight="700" text-anchor="middle">SILICON</text><text x="403" y="264" class="muted t" font-size="8" text-anchor="middle">PLL · ADC · RADIO</text></g>
  <path d="M97 285v21h306v-21" fill="none" class="wire"/><circle cx="250" cy="306" r="4" fill="#ff3333"/><text x="250" y="330" class="ink t" font-size="10" font-weight="600" text-anchor="middle">LOW-POWER INTELLIGENT SYSTEMS</text><text x="250" y="346" class="muted t" font-size="8" text-anchor="middle">NEUROMORPHIC COMPUTING · WIRELESS COMMUNICATION</text>
</svg>
